<svg id="Capa_1" enable-background="new 0 0 512 512" height="512" viewBox="0 0 512 512" width="512" xmlns="http://www.w3.org/2000/svg"><g><g><g><path d="m155.132 285.394h112.95v30h-112.95z" fill="#e2dff4" transform="matrix(.707 -.707 .707 .707 -150.433 237.616)"/><g><path d="m160.435 298.197h112.95v15h-112.95z" fill="#d5d3ea" transform="matrix(.707 -.707 .707 .707 -152.629 242.917)"/></g><path d="m347 330c-90.981 0-165-74.019-165-165s74.019-165 165-165 165 74.019 165 165-74.019 165-165 165z" fill="#6aa9ff"/><path d="m230.382 281.618c29.877 29.877 71.127 48.382 116.618 48.382 90.981 0 165-74.019 165-165 0-45.491-18.505-86.741-48.382-116.618z" fill="#046eff"/><path d="m347 300c-74.439 0-135-60.561-135-135s60.561-135 135-135 135 60.561 135 135-60.561 135-135 135z" fill="#ffde55"/><path d="m251.585 260.415c24.445 24.445 58.195 39.585 95.415 39.585 74.439 0 135-60.561 135-135 0-37.22-15.14-70.97-39.585-95.415z" fill="#ff9f22"/><g><path d="m199.099 369.47c9.763-9.763 9.763-25.592 0-35.355l-21.213-21.213c-9.763-9.763-25.592-9.763-35.355 0l-35.355 35.355c-5.858 5.858-5.858 15.355 0 21.213l35.355 35.355c5.858 5.858 15.355 5.858 21.213 0z" fill="#f6f9f9"/><path d="m142.531 404.824c5.858 5.858 15.355 5.858 21.213 0l35.355-35.355c9.763-9.763 9.763-25.592 0-35.355l-10.607-10.607-63.639 63.639z" fill="#e2dff4"/><path d="m107.175 348.256-95.46 95.46c-15.621 15.621-15.621 40.948 0 56.569 15.621 15.621 40.948 15.621 56.568 0l95.46-95.46z" fill="#6aa9ff"/></g></g><path d="m11.716 500.284c15.621 15.621 40.948 15.621 56.568 0l95.46-95.459-28.284-28.285z" fill="#046eff"/></g><path d="m347 250c-5.682 0-10.876-3.21-13.416-8.292-3.611-7.222-10.87-11.708-18.944-11.708h-37.64c-8.284 0-15-6.716-15-15v-110c0-8.284 6.716-15 15-15h37.64c12.085 0 23.414 4.159 32.36 11.472 8.946-7.313 20.275-11.472 32.36-11.472h37.64c8.284 0 15 6.716 15 15v110c0 8.284-6.716 15-15 15h-37.64c-8.074 0-15.333 4.486-18.944 11.708-2.54 5.082-7.734 8.292-13.416 8.292z" fill="#f6f9f9"/><g><path d="m417 90h-37.64c-12.085 0-23.414 4.159-32.36 11.472v148.528c5.682 0 10.876-3.21 13.416-8.292 3.611-7.222 10.87-11.708 18.944-11.708h37.64c8.284 0 15-6.716 15-15v-110c0-8.284-6.716-15-15-15z" fill="#e2dff4"/></g></g></svg>